<svg width="747" height="132" viewBox="0 0 747 132" fill="none" xmlns="http://www.w3.org/2000/svg">
<path d="M384.237 17.7308H362.654C360.951 17.7308 359.571 19.1113 359.571 20.8141V31.6058C359.571 33.3087 360.951 34.6891 362.654 34.6891H384.237C385.94 34.6891 387.321 33.3087 387.321 31.6058V20.8141C387.321 19.1113 385.94 17.7308 384.237 17.7308Z" stroke="#0075FF" stroke-width="4" stroke-linecap="round" stroke-linejoin="round"/>
<path d="M365.737 17.7308V11.5641C365.735 9.65253 366.444 7.80841 367.725 6.38977C369.006 4.97113 370.769 4.07918 372.671 3.88707C374.573 3.69495 376.478 4.21639 378.017 5.35014C379.557 6.4839 380.619 8.14909 381 10.0225V17.7308" stroke="#0075FF" stroke-width="4" stroke-linecap="round" stroke-linejoin="round"/>
<path d="M227.774 84.1162C227.493 84.46 227.107 84.8089 226.618 85.1631C226.128 85.5173 225.55 85.835 224.883 86.1162C224.206 86.4079 223.451 86.6423 222.618 86.8193C221.784 86.9964 220.889 87.085 219.93 87.085C219.097 87.085 218.31 86.986 217.571 86.7881C216.842 86.6006 216.17 86.3245 215.555 85.96C214.951 85.585 214.399 85.1266 213.899 84.585C213.409 84.0433 212.993 83.4235 212.649 82.7256C212.253 81.9548 211.951 81.085 211.743 80.1162C211.545 79.1475 211.446 78.0954 211.446 76.96V73.8662C211.446 72.7829 211.545 71.7777 211.743 70.8506C211.941 69.9131 212.222 69.0641 212.586 68.3037C212.93 67.6266 213.326 67.0173 213.774 66.4756C214.232 65.9339 214.732 65.4652 215.274 65.0693C215.909 64.6214 216.602 64.2829 217.352 64.0537C218.102 63.8245 218.894 63.71 219.727 63.71C221.008 63.71 222.123 63.8714 223.071 64.1943C224.029 64.5173 224.836 64.9808 225.493 65.585C226.149 66.1995 226.659 66.9443 227.024 67.8193C227.399 68.6943 227.644 69.6787 227.758 70.7725H223.477C223.404 70.2204 223.29 69.7308 223.133 69.3037C222.987 68.8766 222.784 68.5173 222.524 68.2256C222.232 67.9027 221.862 67.6631 221.415 67.5068C220.977 67.3402 220.451 67.2568 219.836 67.2568C219.503 67.2568 219.18 67.3089 218.868 67.4131C218.555 67.5173 218.264 67.6683 217.993 67.8662C217.639 68.137 217.316 68.4912 217.024 68.9287C216.743 69.3662 216.508 69.8818 216.321 70.4756C216.175 70.9339 216.06 71.4443 215.977 72.0068C215.904 72.5693 215.868 73.1787 215.868 73.835V76.96C215.868 77.7829 215.92 78.5329 216.024 79.21C216.139 79.887 216.295 80.486 216.493 81.0068C216.618 81.3089 216.758 81.5902 216.915 81.8506C217.081 82.1006 217.264 82.3245 217.461 82.5225C217.795 82.8558 218.18 83.111 218.618 83.2881C219.066 83.4548 219.571 83.5433 220.133 83.5537C220.477 83.5537 220.816 83.5277 221.149 83.4756C221.482 83.4235 221.795 83.3506 222.086 83.2568C222.378 83.1631 222.633 83.0589 222.852 82.9443C223.081 82.8193 223.253 82.6891 223.368 82.5537L223.383 78.4287H219.618V75.1475H227.758L227.774 84.1162ZM239.711 87.085C238.409 87.085 237.227 86.8714 236.165 86.4443C235.102 86.0173 234.191 85.4339 233.43 84.6943C232.67 83.9652 232.081 83.1058 231.665 82.1162C231.258 81.1162 231.055 80.0485 231.055 78.9131V78.2881C231.055 76.9964 231.258 75.8193 231.665 74.7568C232.071 73.6839 232.639 72.762 233.368 71.9912C234.097 71.2204 234.961 70.6214 235.961 70.1943C236.961 69.7673 238.05 69.5537 239.227 69.5537C240.446 69.5537 241.529 69.7568 242.477 70.1631C243.435 70.5589 244.248 71.1214 244.915 71.8506C245.571 72.5798 246.071 73.46 246.415 74.4912C246.758 75.512 246.93 76.6423 246.93 77.8818V79.7256H235.461V79.7725C235.607 80.4495 235.795 80.9964 236.024 81.4131C236.253 81.8193 236.56 82.1891 236.946 82.5225C237.342 82.8662 237.795 83.1318 238.305 83.3193C238.816 83.5068 239.373 83.6006 239.977 83.6006C240.831 83.6006 241.659 83.4391 242.461 83.1162C243.264 82.7933 243.915 82.3089 244.415 81.6631L246.586 84.0068C246.034 84.7881 245.159 85.4964 243.961 86.1318C242.764 86.7673 241.347 87.085 239.711 87.085ZM239.196 73.0693C238.706 73.0693 238.258 73.1579 237.852 73.335C237.446 73.5016 237.092 73.7464 236.79 74.0693C236.477 74.3923 236.217 74.7777 236.008 75.2256C235.8 75.6735 235.644 76.1735 235.54 76.7256H242.665V76.3818C242.665 75.9235 242.581 75.4912 242.415 75.085C242.248 74.6787 242.019 74.3245 241.727 74.0225C241.435 73.7308 241.076 73.5016 240.649 73.335C240.232 73.1579 239.748 73.0693 239.196 73.0693ZM262.868 69.5537C263.524 69.5537 264.128 69.6006 264.68 69.6943C265.243 69.7777 265.696 69.8714 266.04 69.9756L265.399 74.3037C264.826 74.1683 264.237 74.0693 263.633 74.0068C263.04 73.9339 262.472 73.8975 261.93 73.8975C261.368 73.8975 260.857 73.9495 260.399 74.0537C259.951 74.1475 259.55 74.2933 259.196 74.4912C258.769 74.7204 258.404 75.012 258.102 75.3662C257.8 75.7204 257.55 76.137 257.352 76.6162V86.7725H253.008V69.8662H257.055L257.227 72.2568L257.258 72.6318C257.946 71.6735 258.769 70.9235 259.727 70.3818C260.685 69.8298 261.732 69.5537 262.868 69.5537ZM280.508 86.7725C280.404 86.5641 280.316 86.3245 280.243 86.0537C280.17 85.7829 280.107 85.4964 280.055 85.1943C279.816 85.4548 279.54 85.6995 279.227 85.9287C278.915 86.1579 278.571 86.3558 278.196 86.5225C277.81 86.6995 277.389 86.835 276.93 86.9287C276.472 87.0329 275.977 87.085 275.446 87.085C274.581 87.085 273.784 86.96 273.055 86.71C272.336 86.46 271.717 86.111 271.196 85.6631C270.675 85.2152 270.269 84.6839 269.977 84.0693C269.685 83.4443 269.54 82.7673 269.54 82.0381C269.54 81.1006 269.722 80.2725 270.086 79.5537C270.451 78.8245 270.998 78.2256 271.727 77.7568C272.383 77.3298 273.191 77.0068 274.149 76.7881C275.118 76.5589 276.227 76.4443 277.477 76.4443H279.899V75.4443C279.899 75.0485 279.836 74.6943 279.711 74.3818C279.586 74.0589 279.399 73.7829 279.149 73.5537C278.889 73.3141 278.56 73.1318 278.165 73.0068C277.779 72.8714 277.326 72.8037 276.805 72.8037C276.347 72.8037 275.951 72.861 275.618 72.9756C275.284 73.0798 275.014 73.2308 274.805 73.4287C274.618 73.6058 274.477 73.8193 274.383 74.0693C274.3 74.3193 274.258 74.5954 274.258 74.8975H269.915C269.915 74.1787 270.071 73.4964 270.383 72.8506C270.706 72.2048 271.175 71.637 271.79 71.1475C272.394 70.6579 273.133 70.2725 274.008 69.9912C274.894 69.6995 275.904 69.5537 277.04 69.5537C278.06 69.5537 279.008 69.6787 279.883 69.9287C280.769 70.1787 281.534 70.5485 282.18 71.0381C282.826 71.5277 283.331 72.1475 283.696 72.8975C284.06 73.637 284.243 74.4964 284.243 75.4756V82.7256C284.243 83.6318 284.3 84.3818 284.415 84.9756C284.529 85.5693 284.696 86.0798 284.915 86.5068V86.7725H280.508ZM276.368 83.7256C276.805 83.7256 277.211 83.6735 277.586 83.5693C277.961 83.4652 278.3 83.3298 278.602 83.1631C278.904 82.9964 279.165 82.8089 279.383 82.6006C279.602 82.3818 279.774 82.1631 279.899 81.9443V79.0381H277.68C277.003 79.0381 276.425 79.1058 275.946 79.2412C275.467 79.3662 275.076 79.5433 274.774 79.7725C274.472 80.012 274.248 80.2985 274.102 80.6318C273.956 80.9548 273.883 81.3089 273.883 81.6943C273.883 81.9964 273.935 82.2777 274.04 82.5381C274.154 82.7881 274.316 83.0016 274.524 83.1787C274.732 83.3454 274.987 83.4808 275.29 83.585C275.602 83.6787 275.961 83.7256 276.368 83.7256ZM288.711 78.1943C288.711 76.9131 288.857 75.7412 289.149 74.6787C289.451 73.6162 289.889 72.7048 290.461 71.9443C291.034 71.1839 291.727 70.5954 292.54 70.1787C293.362 69.762 294.3 69.5537 295.352 69.5537C296.237 69.5537 297.014 69.7152 297.68 70.0381C298.357 70.3506 298.956 70.7985 299.477 71.3818V62.7725H303.836V86.7725H299.915L299.696 85.0068C299.165 85.6631 298.54 86.1735 297.821 86.5381C297.102 86.9027 296.269 87.085 295.321 87.085C294.29 87.085 293.362 86.8714 292.54 86.4443C291.727 86.0068 291.04 85.4079 290.477 84.6475C289.904 83.887 289.467 82.986 289.165 81.9443C288.862 80.8923 288.711 79.7516 288.711 78.5225V78.1943ZM293.055 78.5225C293.055 79.2308 293.112 79.8923 293.227 80.5068C293.352 81.111 293.55 81.637 293.821 82.085C294.092 82.5433 294.441 82.9027 294.868 83.1631C295.295 83.4235 295.816 83.5537 296.43 83.5537C297.18 83.5537 297.8 83.3923 298.29 83.0693C298.79 82.7464 299.185 82.3037 299.477 81.7412V74.8975C299.185 74.3245 298.795 73.8818 298.305 73.5693C297.816 73.2464 297.201 73.085 296.461 73.085C295.847 73.085 295.321 73.2204 294.883 73.4912C294.456 73.7516 294.107 74.111 293.836 74.5693C293.566 75.0381 293.368 75.585 293.243 76.21C293.118 76.8245 293.055 77.486 293.055 78.1943V78.5225ZM307.79 78.1631C307.79 76.9339 307.967 75.7985 308.321 74.7568C308.675 73.7048 309.196 72.7933 309.883 72.0225C310.56 71.2516 311.389 70.6475 312.368 70.21C313.357 69.7725 314.487 69.5537 315.758 69.5537C317.029 69.5537 318.159 69.7725 319.149 70.21C320.139 70.6475 320.977 71.2516 321.665 72.0225C322.342 72.7933 322.857 73.7048 323.211 74.7568C323.566 75.7985 323.743 76.9339 323.743 78.1631V78.4912C323.743 79.7308 323.566 80.8766 323.211 81.9287C322.857 82.9704 322.342 83.8766 321.665 84.6475C320.987 85.4183 320.154 86.0225 319.165 86.46C318.175 86.887 317.05 87.1006 315.79 87.1006C314.519 87.1006 313.383 86.887 312.383 86.46C311.394 86.0225 310.56 85.4183 309.883 84.6475C309.196 83.8766 308.675 82.9704 308.321 81.9287C307.967 80.8766 307.79 79.7308 307.79 78.4912V78.1631ZM312.133 78.4912C312.133 79.1995 312.201 79.8662 312.336 80.4912C312.472 81.1058 312.685 81.6423 312.977 82.1006C313.269 82.5693 313.644 82.9391 314.102 83.21C314.571 83.4808 315.133 83.6162 315.79 83.6162C316.425 83.6162 316.972 83.4808 317.43 83.21C317.889 82.9391 318.264 82.5693 318.555 82.1006C318.836 81.6423 319.045 81.1058 319.18 80.4912C319.316 79.8662 319.383 79.1995 319.383 78.4912V78.1631C319.383 77.4756 319.316 76.8245 319.18 76.21C319.045 75.5954 318.836 75.0537 318.555 74.585C318.264 74.1162 317.889 73.7464 317.43 73.4756C316.972 73.2048 316.415 73.0693 315.758 73.0693C315.112 73.0693 314.56 73.2048 314.102 73.4756C313.644 73.7464 313.269 74.1162 312.977 74.585C312.685 75.0537 312.472 75.5954 312.336 76.21C312.201 76.8245 312.133 77.4756 312.133 78.1631V78.4912ZM339.743 69.5537C340.399 69.5537 341.003 69.6006 341.555 69.6943C342.118 69.7777 342.571 69.8714 342.915 69.9756L342.274 74.3037C341.701 74.1683 341.112 74.0693 340.508 74.0068C339.915 73.9339 339.347 73.8975 338.805 73.8975C338.243 73.8975 337.732 73.9495 337.274 74.0537C336.826 74.1475 336.425 74.2933 336.071 74.4912C335.644 74.7204 335.279 75.012 334.977 75.3662C334.675 75.7204 334.425 76.137 334.227 76.6162V86.7725H329.883V69.8662H333.93L334.102 72.2568L334.133 72.6318C334.821 71.6735 335.644 70.9235 336.602 70.3818C337.56 69.8298 338.607 69.5537 339.743 69.5537ZM365.586 78.1943C365.586 76.9131 365.732 75.7412 366.024 74.6787C366.326 73.6162 366.764 72.7048 367.336 71.9443C367.909 71.1839 368.602 70.5954 369.415 70.1787C370.237 69.762 371.175 69.5537 372.227 69.5537C373.112 69.5537 373.889 69.7152 374.555 70.0381C375.232 70.3506 375.831 70.7985 376.352 71.3818V62.7725H380.711V86.7725H376.79L376.571 85.0068C376.04 85.6631 375.415 86.1735 374.696 86.5381C373.977 86.9027 373.144 87.085 372.196 87.085C371.165 87.085 370.237 86.8714 369.415 86.4443C368.602 86.0068 367.915 85.4079 367.352 84.6475C366.779 83.887 366.342 82.986 366.04 81.9443C365.737 80.8923 365.586 79.7516 365.586 78.5225V78.1943ZM369.93 78.5225C369.93 79.2308 369.987 79.8923 370.102 80.5068C370.227 81.111 370.425 81.637 370.696 82.085C370.967 82.5433 371.316 82.9027 371.743 83.1631C372.17 83.4235 372.691 83.5537 373.305 83.5537C374.055 83.5537 374.675 83.3923 375.165 83.0693C375.665 82.7464 376.06 82.3037 376.352 81.7412V74.8975C376.06 74.3245 375.67 73.8818 375.18 73.5693C374.691 73.2464 374.076 73.085 373.336 73.085C372.722 73.085 372.196 73.2204 371.758 73.4912C371.331 73.7516 370.982 74.111 370.711 74.5693C370.441 75.0381 370.243 75.585 370.118 76.21C369.993 76.8245 369.93 77.486 369.93 78.1943V78.5225ZM393.461 87.085C392.159 87.085 390.977 86.8714 389.915 86.4443C388.852 86.0173 387.941 85.4339 387.18 84.6943C386.42 83.9652 385.831 83.1058 385.415 82.1162C385.008 81.1162 384.805 80.0485 384.805 78.9131V78.2881C384.805 76.9964 385.008 75.8193 385.415 74.7568C385.821 73.6839 386.389 72.762 387.118 71.9912C387.847 71.2204 388.711 70.6214 389.711 70.1943C390.711 69.7673 391.8 69.5537 392.977 69.5537C394.196 69.5537 395.279 69.7568 396.227 70.1631C397.185 70.5589 397.998 71.1214 398.665 71.8506C399.321 72.5798 399.821 73.46 400.165 74.4912C400.508 75.512 400.68 76.6423 400.68 77.8818V79.7256H389.211V79.7725C389.357 80.4495 389.545 80.9964 389.774 81.4131C390.003 81.8193 390.31 82.1891 390.696 82.5225C391.092 82.8662 391.545 83.1318 392.055 83.3193C392.566 83.5068 393.123 83.6006 393.727 83.6006C394.581 83.6006 395.409 83.4391 396.211 83.1162C397.014 82.7933 397.665 82.3089 398.165 81.6631L400.336 84.0068C399.784 84.7881 398.909 85.4964 397.711 86.1318C396.514 86.7673 395.097 87.085 393.461 87.085ZM392.946 73.0693C392.456 73.0693 392.008 73.1579 391.602 73.335C391.196 73.5016 390.842 73.7464 390.54 74.0693C390.227 74.3923 389.967 74.7777 389.758 75.2256C389.55 75.6735 389.394 76.1735 389.29 76.7256H396.415V76.3818C396.415 75.9235 396.331 75.4912 396.165 75.085C395.998 74.6787 395.769 74.3245 395.477 74.0225C395.185 73.7308 394.826 73.5016 394.399 73.335C393.982 73.1579 393.498 73.0693 392.946 73.0693ZM434.602 82.1318C434.602 81.8714 434.54 81.6423 434.415 81.4443C434.3 81.2464 434.092 81.0589 433.79 80.8818C433.477 80.7152 433.066 80.5589 432.555 80.4131C432.045 80.2673 431.399 80.1214 430.618 79.9756C429.628 79.7777 428.722 79.5329 427.899 79.2412C427.086 78.9391 426.389 78.5745 425.805 78.1475C425.222 77.7308 424.764 77.2464 424.43 76.6943C424.107 76.1423 423.946 75.5068 423.946 74.7881C423.946 74.0902 424.112 73.4235 424.446 72.7881C424.779 72.1527 425.258 71.5954 425.883 71.1162C426.508 70.637 427.269 70.2568 428.165 69.9756C429.06 69.6943 430.071 69.5537 431.196 69.5537C432.373 69.5537 433.43 69.6943 434.368 69.9756C435.305 70.2464 436.102 70.6214 436.758 71.1006C437.404 71.5902 437.899 72.1683 438.243 72.835C438.586 73.5016 438.758 74.2256 438.758 75.0068H434.415C434.415 74.7256 434.368 74.4652 434.274 74.2256C434.18 73.9756 434.04 73.7516 433.852 73.5537C433.592 73.2933 433.237 73.085 432.79 72.9287C432.352 72.7725 431.821 72.6943 431.196 72.6943C430.665 72.6943 430.201 72.7464 429.805 72.8506C429.409 72.9548 429.086 73.1006 428.836 73.2881C428.607 73.4548 428.43 73.6527 428.305 73.8818C428.191 74.1006 428.133 74.335 428.133 74.585C428.133 74.835 428.185 75.0693 428.29 75.2881C428.394 75.4964 428.581 75.6839 428.852 75.8506C429.112 76.0277 429.472 76.1891 429.93 76.335C430.389 76.4704 430.972 76.5902 431.68 76.6943C432.701 76.861 433.649 77.0745 434.524 77.335C435.399 77.5954 436.154 77.9287 436.79 78.335C437.425 78.7516 437.92 79.2568 438.274 79.8506C438.639 80.4339 438.821 81.1318 438.821 81.9443C438.821 82.6943 438.639 83.387 438.274 84.0225C437.92 84.6475 437.415 85.1891 436.758 85.6475C436.092 86.1058 435.29 86.4652 434.352 86.7256C433.415 86.9756 432.368 87.1006 431.211 87.1006C429.941 87.1006 428.816 86.9339 427.836 86.6006C426.868 86.2673 426.055 85.8298 425.399 85.2881C424.743 84.7568 424.243 84.1527 423.899 83.4756C423.566 82.7881 423.399 82.1006 423.399 81.4131H427.54C427.571 81.8714 427.696 82.2673 427.915 82.6006C428.133 82.9235 428.415 83.1839 428.758 83.3818C429.102 83.5902 429.493 83.7412 429.93 83.835C430.378 83.9287 430.836 83.9756 431.305 83.9756C431.868 83.9756 432.357 83.9287 432.774 83.835C433.201 83.7308 433.55 83.5954 433.821 83.4287C434.081 83.262 434.274 83.0693 434.399 82.8506C434.534 82.6318 434.602 82.3923 434.602 82.1318ZM451.118 87.085C449.816 87.085 448.633 86.8714 447.571 86.4443C446.508 86.0173 445.597 85.4339 444.836 84.6943C444.076 83.9652 443.487 83.1058 443.071 82.1162C442.665 81.1162 442.461 80.0485 442.461 78.9131V78.2881C442.461 76.9964 442.665 75.8193 443.071 74.7568C443.477 73.6839 444.045 72.762 444.774 71.9912C445.503 71.2204 446.368 70.6214 447.368 70.1943C448.368 69.7673 449.456 69.5537 450.633 69.5537C451.852 69.5537 452.935 69.7568 453.883 70.1631C454.842 70.5589 455.654 71.1214 456.321 71.8506C456.977 72.5798 457.477 73.46 457.821 74.4912C458.165 75.512 458.336 76.6423 458.336 77.8818V79.7256H446.868V79.7725C447.014 80.4495 447.201 80.9964 447.43 81.4131C447.659 81.8193 447.967 82.1891 448.352 82.5225C448.748 82.8662 449.201 83.1318 449.711 83.3193C450.222 83.5068 450.779 83.6006 451.383 83.6006C452.237 83.6006 453.066 83.4391 453.868 83.1162C454.67 82.7933 455.321 82.3089 455.821 81.6631L457.993 84.0068C457.441 84.7881 456.566 85.4964 455.368 86.1318C454.17 86.7673 452.753 87.085 451.118 87.085ZM450.602 73.0693C450.112 73.0693 449.665 73.1579 449.258 73.335C448.852 73.5016 448.498 73.7464 448.196 74.0693C447.883 74.3923 447.623 74.7777 447.415 75.2256C447.206 75.6735 447.05 76.1735 446.946 76.7256H454.071V76.3818C454.071 75.9235 453.987 75.4912 453.821 75.085C453.654 74.6787 453.425 74.3245 453.133 74.0225C452.842 73.7308 452.482 73.5016 452.055 73.335C451.639 73.1579 451.154 73.0693 450.602 73.0693ZM462.133 86.7725V69.8662H466.071L466.336 72.21C466.555 71.8975 466.795 71.611 467.055 71.3506C467.316 71.0902 467.592 70.8558 467.883 70.6475C468.383 70.2933 468.93 70.0225 469.524 69.835C470.118 69.6475 470.748 69.5537 471.415 69.5537C472.269 69.5537 473.05 69.6787 473.758 69.9287C474.467 70.1787 475.081 70.5745 475.602 71.1162C476.112 71.6683 476.508 72.3766 476.79 73.2412C477.081 74.0954 477.227 75.137 477.227 76.3662V86.7725H472.883V76.4287C472.883 75.762 472.805 75.2152 472.649 74.7881C472.503 74.3506 472.29 74.0068 472.008 73.7568C471.727 73.5068 471.389 73.335 470.993 73.2412C470.597 73.137 470.149 73.085 469.649 73.085C469.232 73.085 468.847 73.1318 468.493 73.2256C468.149 73.3193 467.842 73.46 467.571 73.6475C467.352 73.7829 467.154 73.9443 466.977 74.1318C466.8 74.3193 466.639 74.5277 466.493 74.7568V86.7725H462.133ZM485.696 72.1943C485.915 71.8714 486.154 71.5745 486.415 71.3037C486.685 71.0225 486.967 70.7777 487.258 70.5693C487.706 70.2464 488.201 69.9964 488.743 69.8193C489.284 69.6423 489.857 69.5537 490.461 69.5537C491.347 69.5537 492.159 69.6891 492.899 69.96C493.639 70.2204 494.274 70.6318 494.805 71.1943C495.336 71.7568 495.748 72.4808 496.04 73.3662C496.342 74.2412 496.493 75.2985 496.493 76.5381V86.7725H492.149V76.5068C492.149 75.9027 492.071 75.3818 491.915 74.9443C491.769 74.5068 491.555 74.1527 491.274 73.8818C490.993 73.611 490.654 73.4131 490.258 73.2881C489.862 73.1527 489.415 73.085 488.915 73.085C488.529 73.085 488.17 73.1214 487.836 73.1943C487.503 73.2673 487.201 73.3766 486.93 73.5225C486.68 73.6475 486.451 73.7985 486.243 73.9756C486.045 74.1527 485.862 74.3506 485.696 74.5693V86.7725H481.352V62.7725H485.696V72.1943ZM511.133 86.7725C511.029 86.5641 510.941 86.3245 510.868 86.0537C510.795 85.7829 510.732 85.4964 510.68 85.1943C510.441 85.4548 510.165 85.6995 509.852 85.9287C509.54 86.1579 509.196 86.3558 508.821 86.5225C508.435 86.6995 508.014 86.835 507.555 86.9287C507.097 87.0329 506.602 87.085 506.071 87.085C505.206 87.085 504.409 86.96 503.68 86.71C502.961 86.46 502.342 86.111 501.821 85.6631C501.3 85.2152 500.894 84.6839 500.602 84.0693C500.31 83.4443 500.165 82.7673 500.165 82.0381C500.165 81.1006 500.347 80.2725 500.711 79.5537C501.076 78.8245 501.623 78.2256 502.352 77.7568C503.008 77.3298 503.816 77.0068 504.774 76.7881C505.743 76.5589 506.852 76.4443 508.102 76.4443H510.524V75.4443C510.524 75.0485 510.461 74.6943 510.336 74.3818C510.211 74.0589 510.024 73.7829 509.774 73.5537C509.514 73.3141 509.185 73.1318 508.79 73.0068C508.404 72.8714 507.951 72.8037 507.43 72.8037C506.972 72.8037 506.576 72.861 506.243 72.9756C505.909 73.0798 505.639 73.2308 505.43 73.4287C505.243 73.6058 505.102 73.8193 505.008 74.0693C504.925 74.3193 504.883 74.5954 504.883 74.8975H500.54C500.54 74.1787 500.696 73.4964 501.008 72.8506C501.331 72.2048 501.8 71.637 502.415 71.1475C503.019 70.6579 503.758 70.2725 504.633 69.9912C505.519 69.6995 506.529 69.5537 507.665 69.5537C508.685 69.5537 509.633 69.6787 510.508 69.9287C511.394 70.1787 512.159 70.5485 512.805 71.0381C513.451 71.5277 513.956 72.1475 514.321 72.8975C514.685 73.637 514.868 74.4964 514.868 75.4756V82.7256C514.868 83.6318 514.925 84.3818 515.04 84.9756C515.154 85.5693 515.321 86.0798 515.54 86.5068V86.7725H511.133ZM506.993 83.7256C507.43 83.7256 507.836 83.6735 508.211 83.5693C508.586 83.4652 508.925 83.3298 509.227 83.1631C509.529 82.9964 509.79 82.8089 510.008 82.6006C510.227 82.3818 510.399 82.1631 510.524 81.9443V79.0381H508.305C507.628 79.0381 507.05 79.1058 506.571 79.2412C506.092 79.3662 505.701 79.5433 505.399 79.7725C505.097 80.012 504.873 80.2985 504.727 80.6318C504.581 80.9548 504.508 81.3089 504.508 81.6943C504.508 81.9964 504.56 82.2777 504.665 82.5381C504.779 82.7881 504.941 83.0016 505.149 83.1787C505.357 83.3454 505.612 83.4808 505.915 83.585C506.227 83.6787 506.586 83.7256 506.993 83.7256ZM530.696 82.1318C530.696 81.8714 530.633 81.6423 530.508 81.4443C530.394 81.2464 530.185 81.0589 529.883 80.8818C529.571 80.7152 529.159 80.5589 528.649 80.4131C528.139 80.2673 527.493 80.1214 526.711 79.9756C525.722 79.7777 524.816 79.5329 523.993 79.2412C523.18 78.9391 522.482 78.5745 521.899 78.1475C521.316 77.7308 520.857 77.2464 520.524 76.6943C520.201 76.1423 520.04 75.5068 520.04 74.7881C520.04 74.0902 520.206 73.4235 520.54 72.7881C520.873 72.1527 521.352 71.5954 521.977 71.1162C522.602 70.637 523.362 70.2568 524.258 69.9756C525.154 69.6943 526.165 69.5537 527.29 69.5537C528.467 69.5537 529.524 69.6943 530.461 69.9756C531.399 70.2464 532.196 70.6214 532.852 71.1006C533.498 71.5902 533.993 72.1683 534.336 72.835C534.68 73.5016 534.852 74.2256 534.852 75.0068H530.508C530.508 74.7256 530.461 74.4652 530.368 74.2256C530.274 73.9756 530.133 73.7516 529.946 73.5537C529.685 73.2933 529.331 73.085 528.883 72.9287C528.446 72.7725 527.915 72.6943 527.29 72.6943C526.758 72.6943 526.295 72.7464 525.899 72.8506C525.503 72.9548 525.18 73.1006 524.93 73.2881C524.701 73.4548 524.524 73.6527 524.399 73.8818C524.284 74.1006 524.227 74.335 524.227 74.585C524.227 74.835 524.279 75.0693 524.383 75.2881C524.487 75.4964 524.675 75.6839 524.946 75.8506C525.206 76.0277 525.566 76.1891 526.024 76.335C526.482 76.4704 527.066 76.5902 527.774 76.6943C528.795 76.861 529.743 77.0745 530.618 77.335C531.493 77.5954 532.248 77.9287 532.883 78.335C533.519 78.7516 534.014 79.2568 534.368 79.8506C534.732 80.4339 534.915 81.1318 534.915 81.9443C534.915 82.6943 534.732 83.387 534.368 84.0225C534.014 84.6475 533.508 85.1891 532.852 85.6475C532.185 86.1058 531.383 86.4652 530.446 86.7256C529.508 86.9756 528.461 87.1006 527.305 87.1006C526.034 87.1006 524.909 86.9339 523.93 86.6006C522.961 86.2673 522.149 85.8298 521.493 85.2881C520.836 84.7568 520.336 84.1527 519.993 83.4756C519.659 82.7881 519.493 82.1006 519.493 81.4131H523.633C523.665 81.8714 523.79 82.2673 524.008 82.6006C524.227 82.9235 524.508 83.1839 524.852 83.3818C525.196 83.5902 525.586 83.7412 526.024 83.835C526.472 83.9287 526.93 83.9756 527.399 83.9756C527.961 83.9756 528.451 83.9287 528.868 83.835C529.295 83.7308 529.644 83.5954 529.915 83.4287C530.175 83.262 530.368 83.0693 530.493 82.8506C530.628 82.6318 530.696 82.3923 530.696 82.1318Z" fill="white"/>
<path d="M103.551 117.276V123.522C103.34 123.835 103.004 124.187 102.543 124.577C102.082 124.96 101.446 125.296 100.633 125.585C99.8285 125.866 98.7895 126.007 97.516 126.007C96.477 126.007 95.5199 125.827 94.6449 125.468C93.7777 125.101 93.0238 124.569 92.3832 123.874C91.7504 123.171 91.2582 122.319 90.9066 121.319C90.5629 120.312 90.391 119.171 90.391 117.897V116.573C90.391 115.3 90.5395 114.163 90.8363 113.163C91.141 112.163 91.5863 111.315 92.1723 110.62C92.7582 109.917 93.477 109.386 94.3285 109.026C95.1801 108.659 96.1566 108.476 97.2582 108.476C98.5629 108.476 99.6527 108.702 100.528 109.155C101.411 109.601 102.098 110.218 102.59 111.007C103.09 111.796 103.411 112.694 103.551 113.702H101.289C101.188 113.085 100.985 112.522 100.68 112.015C100.383 111.507 99.9574 111.101 99.4027 110.796C98.8481 110.483 98.1332 110.327 97.2582 110.327C96.4691 110.327 95.7856 110.472 95.2074 110.761C94.6293 111.05 94.1527 111.464 93.7777 112.003C93.4027 112.542 93.1215 113.194 92.934 113.96C92.7543 114.726 92.6645 115.589 92.6645 116.55V117.897C92.6645 118.882 92.7777 119.761 93.0043 120.534C93.2387 121.308 93.5707 121.968 94.0004 122.515C94.4301 123.054 94.9418 123.464 95.5356 123.745C96.1371 124.026 96.8012 124.167 97.5277 124.167C98.3324 124.167 98.9848 124.101 99.4848 123.968C99.9848 123.827 100.375 123.663 100.657 123.476C100.938 123.28 101.153 123.097 101.301 122.925V119.104H97.352V117.276H103.551ZM112.235 126.007C111.352 126.007 110.551 125.858 109.832 125.562C109.121 125.257 108.508 124.831 107.993 124.284C107.485 123.737 107.094 123.089 106.821 122.339C106.547 121.589 106.411 120.769 106.411 119.878V119.386C106.411 118.354 106.563 117.437 106.868 116.632C107.172 115.819 107.586 115.132 108.11 114.569C108.633 114.007 109.227 113.581 109.891 113.292C110.555 113.003 111.243 112.858 111.954 112.858C112.86 112.858 113.641 113.015 114.297 113.327C114.961 113.64 115.504 114.077 115.926 114.64C116.348 115.194 116.661 115.851 116.864 116.608C117.067 117.358 117.168 118.179 117.168 119.069V120.042H107.7V118.272H115V118.108C114.969 117.546 114.852 116.999 114.649 116.468C114.454 115.937 114.141 115.499 113.711 115.155C113.282 114.812 112.696 114.64 111.954 114.64C111.461 114.64 111.008 114.745 110.594 114.956C110.18 115.159 109.825 115.464 109.528 115.87C109.231 116.276 109 116.772 108.836 117.358C108.672 117.944 108.59 118.62 108.59 119.386V119.878C108.59 120.479 108.672 121.046 108.836 121.577C109.008 122.101 109.254 122.562 109.575 122.96C109.903 123.358 110.297 123.671 110.758 123.897C111.227 124.124 111.758 124.237 112.352 124.237C113.118 124.237 113.766 124.081 114.297 123.769C114.829 123.456 115.293 123.038 115.692 122.515L117.004 123.558C116.731 123.972 116.383 124.366 115.961 124.741C115.539 125.116 115.02 125.421 114.403 125.655C113.793 125.89 113.071 126.007 112.235 126.007ZM121.868 115.085V125.772H119.7V113.093H121.809L121.868 115.085ZM125.829 113.022L125.817 115.038C125.637 114.999 125.465 114.976 125.301 114.968C125.145 114.952 124.965 114.944 124.762 114.944C124.262 114.944 123.821 115.022 123.438 115.179C123.055 115.335 122.731 115.554 122.465 115.835C122.2 116.116 121.989 116.452 121.832 116.843C121.684 117.226 121.586 117.647 121.539 118.108L120.93 118.46C120.93 117.694 121.004 116.976 121.153 116.304C121.309 115.632 121.547 115.038 121.868 114.522C122.188 113.999 122.594 113.593 123.086 113.304C123.586 113.007 124.18 112.858 124.868 112.858C125.024 112.858 125.204 112.878 125.407 112.917C125.61 112.948 125.75 112.983 125.829 113.022ZM132.86 126.007C131.977 126.007 131.176 125.858 130.457 125.562C129.746 125.257 129.133 124.831 128.618 124.284C128.11 123.737 127.719 123.089 127.446 122.339C127.172 121.589 127.036 120.769 127.036 119.878V119.386C127.036 118.354 127.188 117.437 127.493 116.632C127.797 115.819 128.211 115.132 128.735 114.569C129.258 114.007 129.852 113.581 130.516 113.292C131.18 113.003 131.868 112.858 132.579 112.858C133.485 112.858 134.266 113.015 134.922 113.327C135.586 113.64 136.129 114.077 136.551 114.64C136.973 115.194 137.286 115.851 137.489 116.608C137.692 117.358 137.793 118.179 137.793 119.069V120.042H128.325V118.272H135.625V118.108C135.594 117.546 135.477 116.999 135.274 116.468C135.079 115.937 134.766 115.499 134.336 115.155C133.907 114.812 133.321 114.64 132.579 114.64C132.086 114.64 131.633 114.745 131.219 114.956C130.805 115.159 130.45 115.464 130.153 115.87C129.856 116.276 129.625 116.772 129.461 117.358C129.297 117.944 129.215 118.62 129.215 119.386V119.878C129.215 120.479 129.297 121.046 129.461 121.577C129.633 122.101 129.879 122.562 130.2 122.96C130.528 123.358 130.922 123.671 131.383 123.897C131.852 124.124 132.383 124.237 132.977 124.237C133.743 124.237 134.391 124.081 134.922 123.769C135.454 123.456 135.918 123.038 136.317 122.515L137.629 123.558C137.356 123.972 137.008 124.366 136.586 124.741C136.164 125.116 135.645 125.421 135.028 125.655C134.418 125.89 133.696 126.007 132.86 126.007ZM148.633 113.093V125.772H146.454V113.093H148.633ZM146.289 109.729C146.289 109.378 146.395 109.081 146.606 108.839C146.825 108.597 147.145 108.476 147.567 108.476C147.981 108.476 148.297 108.597 148.516 108.839C148.743 109.081 148.856 109.378 148.856 109.729C148.856 110.065 148.743 110.354 148.516 110.597C148.297 110.831 147.981 110.948 147.567 110.948C147.145 110.948 146.825 110.831 146.606 110.597C146.395 110.354 146.289 110.065 146.289 109.729ZM154.282 115.8V125.772H152.114V113.093H154.164L154.282 115.8ZM153.766 118.952L152.864 118.917C152.871 118.05 153 117.249 153.25 116.515C153.5 115.772 153.852 115.128 154.305 114.581C154.758 114.034 155.297 113.612 155.922 113.315C156.555 113.011 157.254 112.858 158.02 112.858C158.645 112.858 159.207 112.944 159.707 113.116C160.207 113.28 160.633 113.546 160.985 113.913C161.344 114.28 161.618 114.757 161.805 115.343C161.993 115.921 162.086 116.628 162.086 117.464V125.772H159.907V117.44C159.907 116.776 159.809 116.245 159.614 115.847C159.418 115.44 159.133 115.147 158.758 114.968C158.383 114.78 157.922 114.687 157.375 114.687C156.836 114.687 156.344 114.8 155.899 115.026C155.461 115.253 155.082 115.565 154.762 115.964C154.45 116.362 154.204 116.819 154.024 117.335C153.852 117.843 153.766 118.382 153.766 118.952ZM172.762 122.409C172.762 122.097 172.692 121.808 172.551 121.542C172.418 121.269 172.141 121.022 171.719 120.804C171.305 120.577 170.68 120.382 169.844 120.218C169.141 120.069 168.504 119.894 167.934 119.69C167.371 119.487 166.891 119.241 166.493 118.952C166.102 118.663 165.801 118.323 165.59 117.933C165.379 117.542 165.274 117.085 165.274 116.562C165.274 116.062 165.383 115.589 165.602 115.144C165.829 114.698 166.145 114.304 166.551 113.96C166.965 113.616 167.461 113.347 168.039 113.151C168.618 112.956 169.262 112.858 169.973 112.858C170.989 112.858 171.856 113.038 172.575 113.397C173.293 113.757 173.844 114.237 174.227 114.839C174.61 115.433 174.801 116.093 174.801 116.819H172.633C172.633 116.468 172.528 116.128 172.317 115.8C172.114 115.464 171.813 115.187 171.414 114.968C171.024 114.749 170.543 114.64 169.973 114.64C169.371 114.64 168.883 114.733 168.508 114.921C168.141 115.101 167.871 115.331 167.7 115.612C167.536 115.894 167.454 116.19 167.454 116.503C167.454 116.737 167.493 116.948 167.571 117.136C167.657 117.315 167.805 117.483 168.016 117.64C168.227 117.788 168.524 117.929 168.907 118.062C169.289 118.194 169.778 118.327 170.371 118.46C171.411 118.694 172.266 118.976 172.938 119.304C173.61 119.632 174.11 120.034 174.438 120.511C174.766 120.987 174.93 121.565 174.93 122.245C174.93 122.8 174.813 123.308 174.579 123.769C174.352 124.229 174.02 124.628 173.582 124.964C173.153 125.292 172.637 125.55 172.036 125.737C171.442 125.917 170.774 126.007 170.032 126.007C168.914 126.007 167.969 125.808 167.196 125.409C166.422 125.011 165.836 124.495 165.438 123.862C165.039 123.229 164.84 122.562 164.84 121.858H167.02C167.051 122.452 167.223 122.925 167.536 123.276C167.848 123.62 168.231 123.866 168.684 124.015C169.137 124.155 169.586 124.226 170.032 124.226C170.625 124.226 171.121 124.147 171.52 123.991C171.926 123.835 172.235 123.62 172.446 123.347C172.657 123.073 172.762 122.761 172.762 122.409ZM183.086 113.093V114.757H176.231V113.093H183.086ZM178.551 110.011H180.719V122.632C180.719 123.062 180.786 123.386 180.918 123.604C181.051 123.823 181.223 123.968 181.434 124.038C181.645 124.108 181.871 124.144 182.114 124.144C182.293 124.144 182.481 124.128 182.676 124.097C182.879 124.058 183.032 124.026 183.133 124.003L183.145 125.772C182.973 125.827 182.746 125.878 182.465 125.925C182.192 125.979 181.86 126.007 181.469 126.007C180.938 126.007 180.45 125.901 180.004 125.69C179.559 125.479 179.204 125.128 178.938 124.636C178.68 124.136 178.551 123.464 178.551 122.62V110.011ZM193.106 123.604V117.077C193.106 116.577 193.004 116.144 192.801 115.776C192.606 115.401 192.309 115.112 191.911 114.909C191.512 114.706 191.02 114.604 190.434 114.604C189.887 114.604 189.407 114.698 188.993 114.886C188.586 115.073 188.266 115.319 188.032 115.624C187.805 115.929 187.692 116.257 187.692 116.608H185.524C185.524 116.155 185.641 115.706 185.875 115.261C186.11 114.815 186.446 114.413 186.883 114.054C187.329 113.687 187.86 113.397 188.477 113.187C189.102 112.968 189.797 112.858 190.563 112.858C191.485 112.858 192.297 113.015 193 113.327C193.711 113.64 194.266 114.112 194.664 114.745C195.071 115.37 195.274 116.155 195.274 117.101V123.007C195.274 123.429 195.309 123.878 195.379 124.354C195.457 124.831 195.571 125.241 195.719 125.585V125.772H193.457C193.348 125.522 193.262 125.19 193.2 124.776C193.137 124.354 193.106 123.964 193.106 123.604ZM193.481 118.085L193.504 119.608H191.313C190.696 119.608 190.145 119.659 189.661 119.761C189.176 119.854 188.77 119.999 188.442 120.194C188.114 120.39 187.864 120.636 187.692 120.933C187.52 121.222 187.434 121.562 187.434 121.952C187.434 122.351 187.524 122.714 187.704 123.042C187.883 123.37 188.153 123.632 188.512 123.827C188.879 124.015 189.329 124.108 189.86 124.108C190.524 124.108 191.11 123.968 191.618 123.687C192.125 123.405 192.528 123.062 192.825 122.655C193.129 122.249 193.293 121.854 193.317 121.472L194.243 122.515C194.188 122.843 194.039 123.206 193.797 123.604C193.555 124.003 193.231 124.386 192.825 124.753C192.426 125.112 191.95 125.413 191.395 125.655C190.848 125.89 190.231 126.007 189.543 126.007C188.684 126.007 187.93 125.839 187.282 125.503C186.641 125.167 186.141 124.718 185.782 124.155C185.43 123.585 185.254 122.948 185.254 122.245C185.254 121.565 185.387 120.968 185.653 120.452C185.918 119.929 186.301 119.495 186.801 119.151C187.301 118.8 187.903 118.534 188.606 118.354C189.309 118.175 190.094 118.085 190.961 118.085H193.481ZM200.852 115.8V125.772H198.684V113.093H200.735L200.852 115.8ZM200.336 118.952L199.434 118.917C199.442 118.05 199.571 117.249 199.821 116.515C200.071 115.772 200.422 115.128 200.875 114.581C201.329 114.034 201.868 113.612 202.493 113.315C203.125 113.011 203.825 112.858 204.59 112.858C205.215 112.858 205.778 112.944 206.278 113.116C206.778 113.28 207.204 113.546 207.555 113.913C207.914 114.28 208.188 114.757 208.375 115.343C208.563 115.921 208.657 116.628 208.657 117.464V125.772H206.477V117.44C206.477 116.776 206.379 116.245 206.184 115.847C205.989 115.44 205.704 115.147 205.329 114.968C204.954 114.78 204.493 114.687 203.946 114.687C203.407 114.687 202.914 114.8 202.469 115.026C202.032 115.253 201.653 115.565 201.332 115.964C201.02 116.362 200.774 116.819 200.594 117.335C200.422 117.843 200.336 118.382 200.336 118.952ZM217.258 113.093V114.757H210.403V113.093H217.258ZM212.723 110.011H214.891V122.632C214.891 123.062 214.957 123.386 215.09 123.604C215.223 123.823 215.395 123.968 215.606 124.038C215.817 124.108 216.043 124.144 216.286 124.144C216.465 124.144 216.653 124.128 216.848 124.097C217.051 124.058 217.204 124.026 217.305 124.003L217.317 125.772C217.145 125.827 216.918 125.878 216.637 125.925C216.364 125.979 216.032 126.007 215.641 126.007C215.11 126.007 214.621 125.901 214.176 125.69C213.731 125.479 213.375 125.128 213.11 124.636C212.852 124.136 212.723 123.464 212.723 122.62V110.011ZM227.278 123.604V117.077C227.278 116.577 227.176 116.144 226.973 115.776C226.778 115.401 226.481 115.112 226.082 114.909C225.684 114.706 225.192 114.604 224.606 114.604C224.059 114.604 223.579 114.698 223.164 114.886C222.758 115.073 222.438 115.319 222.204 115.624C221.977 115.929 221.864 116.257 221.864 116.608H219.696C219.696 116.155 219.813 115.706 220.047 115.261C220.282 114.815 220.618 114.413 221.055 114.054C221.5 113.687 222.032 113.397 222.649 113.187C223.274 112.968 223.969 112.858 224.735 112.858C225.657 112.858 226.469 113.015 227.172 113.327C227.883 113.64 228.438 114.112 228.836 114.745C229.243 115.37 229.446 116.155 229.446 117.101V123.007C229.446 123.429 229.481 123.878 229.551 124.354C229.629 124.831 229.743 125.241 229.891 125.585V125.772H227.629C227.52 125.522 227.434 125.19 227.371 124.776C227.309 124.354 227.278 123.964 227.278 123.604ZM227.653 118.085L227.676 119.608H225.485C224.868 119.608 224.317 119.659 223.832 119.761C223.348 119.854 222.942 119.999 222.614 120.194C222.286 120.39 222.036 120.636 221.864 120.933C221.692 121.222 221.606 121.562 221.606 121.952C221.606 122.351 221.696 122.714 221.875 123.042C222.055 123.37 222.325 123.632 222.684 123.827C223.051 124.015 223.5 124.108 224.032 124.108C224.696 124.108 225.282 123.968 225.789 123.687C226.297 123.405 226.7 123.062 226.996 122.655C227.301 122.249 227.465 121.854 227.489 121.472L228.414 122.515C228.36 122.843 228.211 123.206 227.969 123.604C227.727 124.003 227.403 124.386 226.996 124.753C226.598 125.112 226.121 125.413 225.567 125.655C225.02 125.89 224.403 126.007 223.715 126.007C222.856 126.007 222.102 125.839 221.454 125.503C220.813 125.167 220.313 124.718 219.954 124.155C219.602 123.585 219.426 122.948 219.426 122.245C219.426 121.565 219.559 120.968 219.825 120.452C220.09 119.929 220.473 119.495 220.973 119.151C221.473 118.8 222.075 118.534 222.778 118.354C223.481 118.175 224.266 118.085 225.133 118.085H227.653ZM235.024 115.8V125.772H232.856V113.093H234.907L235.024 115.8ZM234.508 118.952L233.606 118.917C233.614 118.05 233.743 117.249 233.993 116.515C234.243 115.772 234.594 115.128 235.047 114.581C235.5 114.034 236.039 113.612 236.664 113.315C237.297 113.011 237.996 112.858 238.762 112.858C239.387 112.858 239.95 112.944 240.45 113.116C240.95 113.28 241.375 113.546 241.727 113.913C242.086 114.28 242.36 114.757 242.547 115.343C242.735 115.921 242.829 116.628 242.829 117.464V125.772H240.649V117.44C240.649 116.776 240.551 116.245 240.356 115.847C240.161 115.44 239.875 115.147 239.5 114.968C239.125 114.78 238.664 114.687 238.118 114.687C237.579 114.687 237.086 114.8 236.641 115.026C236.204 115.253 235.825 115.565 235.504 115.964C235.192 116.362 234.946 116.819 234.766 117.335C234.594 117.843 234.508 118.382 234.508 118.952ZM251.383 126.007C250.5 126.007 249.7 125.858 248.981 125.562C248.27 125.257 247.657 124.831 247.141 124.284C246.633 123.737 246.243 123.089 245.969 122.339C245.696 121.589 245.559 120.769 245.559 119.878V119.386C245.559 118.354 245.711 117.437 246.016 116.632C246.321 115.819 246.735 115.132 247.258 114.569C247.782 114.007 248.375 113.581 249.039 113.292C249.704 113.003 250.391 112.858 251.102 112.858C252.008 112.858 252.789 113.015 253.446 113.327C254.11 113.64 254.653 114.077 255.075 114.64C255.496 115.194 255.809 115.851 256.012 116.608C256.215 117.358 256.317 118.179 256.317 119.069V120.042H246.848V118.272H254.149V118.108C254.118 117.546 254 116.999 253.797 116.468C253.602 115.937 253.289 115.499 252.86 115.155C252.43 114.812 251.844 114.64 251.102 114.64C250.61 114.64 250.157 114.745 249.743 114.956C249.329 115.159 248.973 115.464 248.676 115.87C248.379 116.276 248.149 116.772 247.985 117.358C247.821 117.944 247.739 118.62 247.739 119.386V119.878C247.739 120.479 247.821 121.046 247.985 121.577C248.157 122.101 248.403 122.562 248.723 122.96C249.051 123.358 249.446 123.671 249.907 123.897C250.375 124.124 250.907 124.237 251.5 124.237C252.266 124.237 252.914 124.081 253.446 123.769C253.977 123.456 254.442 123.038 254.84 122.515L256.153 123.558C255.879 123.972 255.532 124.366 255.11 124.741C254.688 125.116 254.168 125.421 253.551 125.655C252.942 125.89 252.219 126.007 251.383 126.007ZM266.325 123.604V117.077C266.325 116.577 266.223 116.144 266.02 115.776C265.825 115.401 265.528 115.112 265.129 114.909C264.731 114.706 264.239 114.604 263.653 114.604C263.106 114.604 262.625 114.698 262.211 114.886C261.805 115.073 261.485 115.319 261.25 115.624C261.024 115.929 260.911 116.257 260.911 116.608H258.743C258.743 116.155 258.86 115.706 259.094 115.261C259.329 114.815 259.664 114.413 260.102 114.054C260.547 113.687 261.079 113.397 261.696 113.187C262.321 112.968 263.016 112.858 263.782 112.858C264.704 112.858 265.516 113.015 266.219 113.327C266.93 113.64 267.485 114.112 267.883 114.745C268.289 115.37 268.493 116.155 268.493 117.101V123.007C268.493 123.429 268.528 123.878 268.598 124.354C268.676 124.831 268.789 125.241 268.938 125.585V125.772H266.676C266.567 125.522 266.481 125.19 266.418 124.776C266.356 124.354 266.325 123.964 266.325 123.604ZM266.7 118.085L266.723 119.608H264.532C263.914 119.608 263.364 119.659 262.879 119.761C262.395 119.854 261.989 119.999 261.661 120.194C261.332 120.39 261.082 120.636 260.911 120.933C260.739 121.222 260.653 121.562 260.653 121.952C260.653 122.351 260.743 122.714 260.922 123.042C261.102 123.37 261.371 123.632 261.731 123.827C262.098 124.015 262.547 124.108 263.079 124.108C263.743 124.108 264.329 123.968 264.836 123.687C265.344 123.405 265.746 123.062 266.043 122.655C266.348 122.249 266.512 121.854 266.536 121.472L267.461 122.515C267.407 122.843 267.258 123.206 267.016 123.604C266.774 124.003 266.45 124.386 266.043 124.753C265.645 125.112 265.168 125.413 264.614 125.655C264.067 125.89 263.45 126.007 262.762 126.007C261.903 126.007 261.149 125.839 260.5 125.503C259.86 125.167 259.36 124.718 259 124.155C258.649 123.585 258.473 122.948 258.473 122.245C258.473 121.565 258.606 120.968 258.871 120.452C259.137 119.929 259.52 119.495 260.02 119.151C260.52 118.8 261.121 118.534 261.825 118.354C262.528 118.175 263.313 118.085 264.18 118.085H266.7ZM274.059 115.612V125.772H271.879V113.093H273.942L274.059 115.612ZM273.614 118.952L272.606 118.917C272.614 118.05 272.727 117.249 272.946 116.515C273.164 115.772 273.489 115.128 273.918 114.581C274.348 114.034 274.883 113.612 275.524 113.315C276.164 113.011 276.907 112.858 277.75 112.858C278.344 112.858 278.891 112.944 279.391 113.116C279.891 113.28 280.325 113.542 280.692 113.901C281.059 114.261 281.344 114.722 281.547 115.284C281.75 115.847 281.852 116.526 281.852 117.323V125.772H279.684V117.429C279.684 116.765 279.571 116.233 279.344 115.835C279.125 115.437 278.813 115.147 278.407 114.968C278 114.78 277.524 114.687 276.977 114.687C276.336 114.687 275.801 114.8 275.371 115.026C274.942 115.253 274.598 115.565 274.34 115.964C274.082 116.362 273.895 116.819 273.778 117.335C273.668 117.843 273.614 118.382 273.614 118.952ZM281.829 117.757L280.375 118.202C280.383 117.507 280.496 116.839 280.715 116.198C280.942 115.558 281.266 114.987 281.688 114.487C282.118 113.987 282.645 113.593 283.27 113.304C283.895 113.007 284.61 112.858 285.414 112.858C286.094 112.858 286.696 112.948 287.219 113.128C287.75 113.308 288.196 113.585 288.555 113.96C288.922 114.327 289.2 114.8 289.387 115.378C289.575 115.956 289.668 116.644 289.668 117.44V125.772H287.489V117.417C287.489 116.706 287.375 116.155 287.149 115.765C286.93 115.366 286.618 115.089 286.211 114.933C285.813 114.769 285.336 114.687 284.782 114.687C284.305 114.687 283.883 114.769 283.516 114.933C283.149 115.097 282.84 115.323 282.59 115.612C282.34 115.894 282.149 116.218 282.016 116.585C281.891 116.952 281.829 117.343 281.829 117.757ZM298.211 126.007C297.329 126.007 296.528 125.858 295.809 125.562C295.098 125.257 294.485 124.831 293.969 124.284C293.461 123.737 293.071 123.089 292.797 122.339C292.524 121.589 292.387 120.769 292.387 119.878V119.386C292.387 118.354 292.539 117.437 292.844 116.632C293.149 115.819 293.563 115.132 294.086 114.569C294.61 114.007 295.204 113.581 295.868 113.292C296.532 113.003 297.219 112.858 297.93 112.858C298.836 112.858 299.618 113.015 300.274 113.327C300.938 113.64 301.481 114.077 301.903 114.64C302.325 115.194 302.637 115.851 302.84 116.608C303.043 117.358 303.145 118.179 303.145 119.069V120.042H293.676V118.272H300.977V118.108C300.946 117.546 300.829 116.999 300.625 116.468C300.43 115.937 300.118 115.499 299.688 115.155C299.258 114.812 298.672 114.64 297.93 114.64C297.438 114.64 296.985 114.745 296.571 114.956C296.157 115.159 295.801 115.464 295.504 115.87C295.207 116.276 294.977 116.772 294.813 117.358C294.649 117.944 294.567 118.62 294.567 119.386V119.878C294.567 120.479 294.649 121.046 294.813 121.577C294.985 122.101 295.231 122.562 295.551 122.96C295.879 123.358 296.274 123.671 296.735 123.897C297.204 124.124 297.735 124.237 298.329 124.237C299.094 124.237 299.743 124.081 300.274 123.769C300.805 123.456 301.27 123.038 301.668 122.515L302.981 123.558C302.707 123.972 302.36 124.366 301.938 124.741C301.516 125.116 300.996 125.421 300.379 125.655C299.77 125.89 299.047 126.007 298.211 126.007ZM307.844 115.8V125.772H305.676V113.093H307.727L307.844 115.8ZM307.329 118.952L306.426 118.917C306.434 118.05 306.563 117.249 306.813 116.515C307.063 115.772 307.414 115.128 307.868 114.581C308.321 114.034 308.86 113.612 309.485 113.315C310.118 113.011 310.817 112.858 311.582 112.858C312.207 112.858 312.77 112.944 313.27 113.116C313.77 113.28 314.196 113.546 314.547 113.913C314.907 114.28 315.18 114.757 315.368 115.343C315.555 115.921 315.649 116.628 315.649 117.464V125.772H313.469V117.44C313.469 116.776 313.371 116.245 313.176 115.847C312.981 115.44 312.696 115.147 312.321 114.968C311.946 114.78 311.485 114.687 310.938 114.687C310.399 114.687 309.907 114.8 309.461 115.026C309.024 115.253 308.645 115.565 308.325 115.964C308.012 116.362 307.766 116.819 307.586 117.335C307.414 117.843 307.329 118.382 307.329 118.952ZM324.25 113.093V114.757H317.395V113.093H324.25ZM319.715 110.011H321.883V122.632C321.883 123.062 321.95 123.386 322.082 123.604C322.215 123.823 322.387 123.968 322.598 124.038C322.809 124.108 323.036 124.144 323.278 124.144C323.457 124.144 323.645 124.128 323.84 124.097C324.043 124.058 324.196 124.026 324.297 124.003L324.309 125.772C324.137 125.827 323.911 125.878 323.629 125.925C323.356 125.979 323.024 126.007 322.633 126.007C322.102 126.007 321.614 125.901 321.168 125.69C320.723 125.479 320.368 125.128 320.102 124.636C319.844 124.136 319.715 123.464 319.715 122.62V110.011ZM332.055 126.007C331.172 126.007 330.371 125.858 329.653 125.562C328.942 125.257 328.329 124.831 327.813 124.284C327.305 123.737 326.914 123.089 326.641 122.339C326.368 121.589 326.231 120.769 326.231 119.878V119.386C326.231 118.354 326.383 117.437 326.688 116.632C326.993 115.819 327.407 115.132 327.93 114.569C328.454 114.007 329.047 113.581 329.711 113.292C330.375 113.003 331.063 112.858 331.774 112.858C332.68 112.858 333.461 113.015 334.118 113.327C334.782 113.64 335.325 114.077 335.746 114.64C336.168 115.194 336.481 115.851 336.684 116.608C336.887 117.358 336.989 118.179 336.989 119.069V120.042H327.52V118.272H334.821V118.108C334.789 117.546 334.672 116.999 334.469 116.468C334.274 115.937 333.961 115.499 333.532 115.155C333.102 114.812 332.516 114.64 331.774 114.64C331.282 114.64 330.829 114.745 330.414 114.956C330 115.159 329.645 115.464 329.348 115.87C329.051 116.276 328.821 116.772 328.657 117.358C328.493 117.944 328.411 118.62 328.411 119.386V119.878C328.411 120.479 328.493 121.046 328.657 121.577C328.829 122.101 329.075 122.562 329.395 122.96C329.723 123.358 330.118 123.671 330.579 123.897C331.047 124.124 331.579 124.237 332.172 124.237C332.938 124.237 333.586 124.081 334.118 123.769C334.649 123.456 335.114 123.038 335.512 122.515L336.825 123.558C336.551 123.972 336.204 124.366 335.782 124.741C335.36 125.116 334.84 125.421 334.223 125.655C333.614 125.89 332.891 126.007 332.055 126.007ZM353.231 122.843V113.093H355.411V125.772H353.336L353.231 122.843ZM353.641 120.171L354.543 120.147C354.543 120.991 354.454 121.772 354.274 122.491C354.102 123.202 353.821 123.819 353.43 124.343C353.039 124.866 352.528 125.276 351.895 125.573C351.262 125.862 350.493 126.007 349.586 126.007C348.969 126.007 348.403 125.917 347.887 125.737C347.379 125.558 346.942 125.28 346.575 124.905C346.207 124.53 345.922 124.042 345.719 123.44C345.524 122.839 345.426 122.116 345.426 121.272V113.093H347.594V121.296C347.594 121.866 347.657 122.339 347.782 122.714C347.914 123.081 348.09 123.374 348.309 123.593C348.536 123.804 348.786 123.952 349.059 124.038C349.34 124.124 349.629 124.167 349.926 124.167C350.848 124.167 351.579 123.991 352.118 123.64C352.657 123.28 353.043 122.8 353.278 122.198C353.52 121.589 353.641 120.913 353.641 120.171ZM360.871 115.612V125.772H358.692V113.093H360.754L360.871 115.612ZM360.426 118.952L359.418 118.917C359.426 118.05 359.539 117.249 359.758 116.515C359.977 115.772 360.301 115.128 360.731 114.581C361.161 114.034 361.696 113.612 362.336 113.315C362.977 113.011 363.719 112.858 364.563 112.858C365.157 112.858 365.704 112.944 366.204 113.116C366.704 113.28 367.137 113.542 367.504 113.901C367.871 114.261 368.157 114.722 368.36 115.284C368.563 115.847 368.664 116.526 368.664 117.323V125.772H366.496V117.429C366.496 116.765 366.383 116.233 366.157 115.835C365.938 115.437 365.625 115.147 365.219 114.968C364.813 114.78 364.336 114.687 363.789 114.687C363.149 114.687 362.614 114.8 362.184 115.026C361.754 115.253 361.411 115.565 361.153 115.964C360.895 116.362 360.707 116.819 360.59 117.335C360.481 117.843 360.426 118.382 360.426 118.952ZM368.641 117.757L367.188 118.202C367.196 117.507 367.309 116.839 367.528 116.198C367.754 115.558 368.079 114.987 368.5 114.487C368.93 113.987 369.457 113.593 370.082 113.304C370.707 113.007 371.422 112.858 372.227 112.858C372.907 112.858 373.508 112.948 374.032 113.128C374.563 113.308 375.008 113.585 375.368 113.96C375.735 114.327 376.012 114.8 376.2 115.378C376.387 115.956 376.481 116.644 376.481 117.44V125.772H374.301V117.417C374.301 116.706 374.188 116.155 373.961 115.765C373.743 115.366 373.43 115.089 373.024 114.933C372.625 114.769 372.149 114.687 371.594 114.687C371.118 114.687 370.696 114.769 370.329 114.933C369.961 115.097 369.653 115.323 369.403 115.612C369.153 115.894 368.961 116.218 368.829 116.585C368.704 116.952 368.641 117.343 368.641 117.757ZM387.239 123.604V117.077C387.239 116.577 387.137 116.144 386.934 115.776C386.739 115.401 386.442 115.112 386.043 114.909C385.645 114.706 385.153 114.604 384.567 114.604C384.02 114.604 383.539 114.698 383.125 114.886C382.719 115.073 382.399 115.319 382.164 115.624C381.938 115.929 381.825 116.257 381.825 116.608H379.657C379.657 116.155 379.774 115.706 380.008 115.261C380.243 114.815 380.579 114.413 381.016 114.054C381.461 113.687 381.993 113.397 382.61 113.187C383.235 112.968 383.93 112.858 384.696 112.858C385.618 112.858 386.43 113.015 387.133 113.327C387.844 113.64 388.399 114.112 388.797 114.745C389.204 115.37 389.407 116.155 389.407 117.101V123.007C389.407 123.429 389.442 123.878 389.512 124.354C389.59 124.831 389.704 125.241 389.852 125.585V125.772H387.59C387.481 125.522 387.395 125.19 387.332 124.776C387.27 124.354 387.239 123.964 387.239 123.604ZM387.614 118.085L387.637 119.608H385.446C384.829 119.608 384.278 119.659 383.793 119.761C383.309 119.854 382.903 119.999 382.575 120.194C382.246 120.39 381.996 120.636 381.825 120.933C381.653 121.222 381.567 121.562 381.567 121.952C381.567 122.351 381.657 122.714 381.836 123.042C382.016 123.37 382.286 123.632 382.645 123.827C383.012 124.015 383.461 124.108 383.993 124.108C384.657 124.108 385.243 123.968 385.75 123.687C386.258 123.405 386.661 123.062 386.957 122.655C387.262 122.249 387.426 121.854 387.45 121.472L388.375 122.515C388.321 122.843 388.172 123.206 387.93 123.604C387.688 124.003 387.364 124.386 386.957 124.753C386.559 125.112 386.082 125.413 385.528 125.655C384.981 125.89 384.364 126.007 383.676 126.007C382.817 126.007 382.063 125.839 381.414 125.503C380.774 125.167 380.274 124.718 379.914 124.155C379.563 123.585 379.387 122.948 379.387 122.245C379.387 121.565 379.52 120.968 379.786 120.452C380.051 119.929 380.434 119.495 380.934 119.151C381.434 118.8 382.036 118.534 382.739 118.354C383.442 118.175 384.227 118.085 385.094 118.085H387.614ZM406.153 122.409C406.153 122.097 406.082 121.808 405.942 121.542C405.809 121.269 405.532 121.022 405.11 120.804C404.696 120.577 404.071 120.382 403.235 120.218C402.532 120.069 401.895 119.894 401.325 119.69C400.762 119.487 400.282 119.241 399.883 118.952C399.493 118.663 399.192 118.323 398.981 117.933C398.77 117.542 398.664 117.085 398.664 116.562C398.664 116.062 398.774 115.589 398.993 115.144C399.219 114.698 399.536 114.304 399.942 113.96C400.356 113.616 400.852 113.347 401.43 113.151C402.008 112.956 402.653 112.858 403.364 112.858C404.379 112.858 405.246 113.038 405.965 113.397C406.684 113.757 407.235 114.237 407.618 114.839C408 115.433 408.192 116.093 408.192 116.819H406.024C406.024 116.468 405.918 116.128 405.707 115.8C405.504 115.464 405.204 115.187 404.805 114.968C404.414 114.749 403.934 114.64 403.364 114.64C402.762 114.64 402.274 114.733 401.899 114.921C401.532 115.101 401.262 115.331 401.09 115.612C400.926 115.894 400.844 116.19 400.844 116.503C400.844 116.737 400.883 116.948 400.961 117.136C401.047 117.315 401.196 117.483 401.407 117.64C401.618 117.788 401.914 117.929 402.297 118.062C402.68 118.194 403.168 118.327 403.762 118.46C404.801 118.694 405.657 118.976 406.329 119.304C407 119.632 407.5 120.034 407.829 120.511C408.157 120.987 408.321 121.565 408.321 122.245C408.321 122.8 408.204 123.308 407.969 123.769C407.743 124.229 407.411 124.628 406.973 124.964C406.543 125.292 406.028 125.55 405.426 125.737C404.832 125.917 404.164 126.007 403.422 126.007C402.305 126.007 401.36 125.808 400.586 125.409C399.813 125.011 399.227 124.495 398.829 123.862C398.43 123.229 398.231 122.562 398.231 121.858H400.411C400.442 122.452 400.614 122.925 400.926 123.276C401.239 123.62 401.621 123.866 402.075 124.015C402.528 124.155 402.977 124.226 403.422 124.226C404.016 124.226 404.512 124.147 404.911 123.991C405.317 123.835 405.625 123.62 405.836 123.347C406.047 123.073 406.153 122.761 406.153 122.409ZM416.43 126.007C415.547 126.007 414.746 125.858 414.028 125.562C413.317 125.257 412.704 124.831 412.188 124.284C411.68 123.737 411.289 123.089 411.016 122.339C410.743 121.589 410.606 120.769 410.606 119.878V119.386C410.606 118.354 410.758 117.437 411.063 116.632C411.368 115.819 411.782 115.132 412.305 114.569C412.829 114.007 413.422 113.581 414.086 113.292C414.75 113.003 415.438 112.858 416.149 112.858C417.055 112.858 417.836 113.015 418.493 113.327C419.157 113.64 419.7 114.077 420.121 114.64C420.543 115.194 420.856 115.851 421.059 116.608C421.262 117.358 421.364 118.179 421.364 119.069V120.042H411.895V118.272H419.196V118.108C419.164 117.546 419.047 116.999 418.844 116.468C418.649 115.937 418.336 115.499 417.907 115.155C417.477 114.812 416.891 114.64 416.149 114.64C415.657 114.64 415.204 114.745 414.789 114.956C414.375 115.159 414.02 115.464 413.723 115.87C413.426 116.276 413.196 116.772 413.032 117.358C412.868 117.944 412.786 118.62 412.786 119.386V119.878C412.786 120.479 412.868 121.046 413.032 121.577C413.204 122.101 413.45 122.562 413.77 122.96C414.098 123.358 414.493 123.671 414.954 123.897C415.422 124.124 415.954 124.237 416.547 124.237C417.313 124.237 417.961 124.081 418.493 123.769C419.024 123.456 419.489 123.038 419.887 122.515L421.2 123.558C420.926 123.972 420.579 124.366 420.157 124.741C419.735 125.116 419.215 125.421 418.598 125.655C417.989 125.89 417.266 126.007 416.43 126.007ZM426.063 115.8V125.772H423.895V113.093H425.946L426.063 115.8ZM425.547 118.952L424.645 118.917C424.653 118.05 424.782 117.249 425.032 116.515C425.282 115.772 425.633 115.128 426.086 114.581C426.539 114.034 427.079 113.612 427.704 113.315C428.336 113.011 429.036 112.858 429.801 112.858C430.426 112.858 430.989 112.944 431.489 113.116C431.989 113.28 432.414 113.546 432.766 113.913C433.125 114.28 433.399 114.757 433.586 115.343C433.774 115.921 433.868 116.628 433.868 117.464V125.772H431.688V117.44C431.688 116.776 431.59 116.245 431.395 115.847C431.2 115.44 430.914 115.147 430.539 114.968C430.164 114.78 429.704 114.687 429.157 114.687C428.618 114.687 428.125 114.8 427.68 115.026C427.243 115.253 426.864 115.565 426.543 115.964C426.231 116.362 425.985 116.819 425.805 117.335C425.633 117.843 425.547 118.382 425.547 118.952ZM439.329 107.772V125.772H437.161V107.772H439.329ZM438.813 118.952L437.911 118.917C437.918 118.05 438.047 117.249 438.297 116.515C438.547 115.772 438.899 115.128 439.352 114.581C439.805 114.034 440.344 113.612 440.969 113.315C441.602 113.011 442.301 112.858 443.067 112.858C443.692 112.858 444.254 112.944 444.754 113.116C445.254 113.28 445.68 113.546 446.032 113.913C446.391 114.28 446.664 114.757 446.852 115.343C447.039 115.921 447.133 116.628 447.133 117.464V125.772H444.954V117.44C444.954 116.776 444.856 116.245 444.661 115.847C444.465 115.44 444.18 115.147 443.805 114.968C443.43 114.78 442.969 114.687 442.422 114.687C441.883 114.687 441.391 114.8 440.946 115.026C440.508 115.253 440.129 115.565 439.809 115.964C439.496 116.362 439.25 116.819 439.071 117.335C438.899 117.843 438.813 118.382 438.813 118.952ZM457.856 123.604V117.077C457.856 116.577 457.754 116.144 457.551 115.776C457.356 115.401 457.059 115.112 456.661 114.909C456.262 114.706 455.77 114.604 455.184 114.604C454.637 114.604 454.157 114.698 453.743 114.886C453.336 115.073 453.016 115.319 452.782 115.624C452.555 115.929 452.442 116.257 452.442 116.608H450.274C450.274 116.155 450.391 115.706 450.625 115.261C450.86 114.815 451.196 114.413 451.633 114.054C452.079 113.687 452.61 113.397 453.227 113.187C453.852 112.968 454.547 112.858 455.313 112.858C456.235 112.858 457.047 113.015 457.75 113.327C458.461 113.64 459.016 114.112 459.414 114.745C459.821 115.37 460.024 116.155 460.024 117.101V123.007C460.024 123.429 460.059 123.878 460.129 124.354C460.207 124.831 460.321 125.241 460.469 125.585V125.772H458.207C458.098 125.522 458.012 125.19 457.95 124.776C457.887 124.354 457.856 123.964 457.856 123.604ZM458.231 118.085L458.254 119.608H456.063C455.446 119.608 454.895 119.659 454.411 119.761C453.926 119.854 453.52 119.999 453.192 120.194C452.864 120.39 452.614 120.636 452.442 120.933C452.27 121.222 452.184 121.562 452.184 121.952C452.184 122.351 452.274 122.714 452.454 123.042C452.633 123.37 452.903 123.632 453.262 123.827C453.629 124.015 454.079 124.108 454.61 124.108C455.274 124.108 455.86 123.968 456.368 123.687C456.875 123.405 457.278 123.062 457.575 122.655C457.879 122.249 458.043 121.854 458.067 121.472L458.993 122.515C458.938 122.843 458.789 123.206 458.547 123.604C458.305 124.003 457.981 124.386 457.575 124.753C457.176 125.112 456.7 125.413 456.145 125.655C455.598 125.89 454.981 126.007 454.293 126.007C453.434 126.007 452.68 125.839 452.032 125.503C451.391 125.167 450.891 124.718 450.532 124.155C450.18 123.585 450.004 122.948 450.004 122.245C450.004 121.565 450.137 120.968 450.403 120.452C450.668 119.929 451.051 119.495 451.551 119.151C452.051 118.8 452.653 118.534 453.356 118.354C454.059 118.175 454.844 118.085 455.711 118.085H458.231ZM476.864 123.604V117.077C476.864 116.577 476.762 116.144 476.559 115.776C476.364 115.401 476.067 115.112 475.668 114.909C475.27 114.706 474.778 114.604 474.192 114.604C473.645 114.604 473.164 114.698 472.75 114.886C472.344 115.073 472.024 115.319 471.789 115.624C471.563 115.929 471.45 116.257 471.45 116.608H469.282C469.282 116.155 469.399 115.706 469.633 115.261C469.868 114.815 470.204 114.413 470.641 114.054C471.086 113.687 471.618 113.397 472.235 113.187C472.86 112.968 473.555 112.858 474.321 112.858C475.243 112.858 476.055 113.015 476.758 113.327C477.469 113.64 478.024 114.112 478.422 114.745C478.829 115.37 479.032 116.155 479.032 117.101V123.007C479.032 123.429 479.067 123.878 479.137 124.354C479.215 124.831 479.329 125.241 479.477 125.585V125.772H477.215C477.106 125.522 477.02 125.19 476.957 124.776C476.895 124.354 476.864 123.964 476.864 123.604ZM477.239 118.085L477.262 119.608H475.071C474.454 119.608 473.903 119.659 473.418 119.761C472.934 119.854 472.528 119.999 472.2 120.194C471.871 120.39 471.621 120.636 471.45 120.933C471.278 121.222 471.192 121.562 471.192 121.952C471.192 122.351 471.282 122.714 471.461 123.042C471.641 123.37 471.911 123.632 472.27 123.827C472.637 124.015 473.086 124.108 473.618 124.108C474.282 124.108 474.868 123.968 475.375 123.687C475.883 123.405 476.286 123.062 476.582 122.655C476.887 122.249 477.051 121.854 477.075 121.472L478 122.515C477.946 122.843 477.797 123.206 477.555 123.604C477.313 124.003 476.989 124.386 476.582 124.753C476.184 125.112 475.707 125.413 475.153 125.655C474.606 125.89 473.989 126.007 473.301 126.007C472.442 126.007 471.688 125.839 471.039 125.503C470.399 125.167 469.899 124.718 469.539 124.155C469.188 123.585 469.012 122.948 469.012 122.245C469.012 121.565 469.145 120.968 469.411 120.452C469.676 119.929 470.059 119.495 470.559 119.151C471.059 118.8 471.661 118.534 472.364 118.354C473.067 118.175 473.852 118.085 474.719 118.085H477.239ZM484.797 107.772V125.772H482.618V107.772H484.797ZM493.539 126.007C492.657 126.007 491.856 125.858 491.137 125.562C490.426 125.257 489.813 124.831 489.297 124.284C488.789 123.737 488.399 123.089 488.125 122.339C487.852 121.589 487.715 120.769 487.715 119.878V119.386C487.715 118.354 487.868 117.437 488.172 116.632C488.477 115.819 488.891 115.132 489.414 114.569C489.938 114.007 490.532 113.581 491.196 113.292C491.86 113.003 492.547 112.858 493.258 112.858C494.164 112.858 494.946 113.015 495.602 113.327C496.266 113.64 496.809 114.077 497.231 114.64C497.653 115.194 497.965 115.851 498.168 116.608C498.371 117.358 498.473 118.179 498.473 119.069V120.042H489.004V118.272H496.305V118.108C496.274 117.546 496.157 116.999 495.954 116.468C495.758 115.937 495.446 115.499 495.016 115.155C494.586 114.812 494 114.64 493.258 114.64C492.766 114.64 492.313 114.745 491.899 114.956C491.485 115.159 491.129 115.464 490.832 115.87C490.536 116.276 490.305 116.772 490.141 117.358C489.977 117.944 489.895 118.62 489.895 119.386V119.878C489.895 120.479 489.977 121.046 490.141 121.577C490.313 122.101 490.559 122.562 490.879 122.96C491.207 123.358 491.602 123.671 492.063 123.897C492.532 124.124 493.063 124.237 493.657 124.237C494.422 124.237 495.071 124.081 495.602 123.769C496.133 123.456 496.598 123.038 496.996 122.515L498.309 123.558C498.036 123.972 497.688 124.366 497.266 124.741C496.844 125.116 496.325 125.421 495.707 125.655C495.098 125.89 494.375 126.007 493.539 126.007ZM508.481 123.604V117.077C508.481 116.577 508.379 116.144 508.176 115.776C507.981 115.401 507.684 115.112 507.286 114.909C506.887 114.706 506.395 114.604 505.809 114.604C505.262 114.604 504.782 114.698 504.368 114.886C503.961 115.073 503.641 115.319 503.407 115.624C503.18 115.929 503.067 116.257 503.067 116.608H500.899C500.899 116.155 501.016 115.706 501.25 115.261C501.485 114.815 501.821 114.413 502.258 114.054C502.704 113.687 503.235 113.397 503.852 113.187C504.477 112.968 505.172 112.858 505.938 112.858C506.86 112.858 507.672 113.015 508.375 113.327C509.086 113.64 509.641 114.112 510.039 114.745C510.446 115.37 510.649 116.155 510.649 117.101V123.007C510.649 123.429 510.684 123.878 510.754 124.354C510.832 124.831 510.946 125.241 511.094 125.585V125.772H508.832C508.723 125.522 508.637 125.19 508.575 124.776C508.512 124.354 508.481 123.964 508.481 123.604ZM508.856 118.085L508.879 119.608H506.688C506.071 119.608 505.52 119.659 505.036 119.761C504.551 119.854 504.145 119.999 503.817 120.194C503.489 120.39 503.239 120.636 503.067 120.933C502.895 121.222 502.809 121.562 502.809 121.952C502.809 122.351 502.899 122.714 503.079 123.042C503.258 123.37 503.528 123.632 503.887 123.827C504.254 124.015 504.704 124.108 505.235 124.108C505.899 124.108 506.485 123.968 506.993 123.687C507.5 123.405 507.903 123.062 508.2 122.655C508.504 122.249 508.668 121.854 508.692 121.472L509.618 122.515C509.563 122.843 509.414 123.206 509.172 123.604C508.93 124.003 508.606 124.386 508.2 124.753C507.801 125.112 507.325 125.413 506.77 125.655C506.223 125.89 505.606 126.007 504.918 126.007C504.059 126.007 503.305 125.839 502.657 125.503C502.016 125.167 501.516 124.718 501.157 124.155C500.805 123.585 500.629 122.948 500.629 122.245C500.629 121.565 500.762 120.968 501.028 120.452C501.293 119.929 501.676 119.495 502.176 119.151C502.676 118.8 503.278 118.534 503.981 118.354C504.684 118.175 505.469 118.085 506.336 118.085H508.856ZM519.368 113.093V114.757H512.512V113.093H519.368ZM514.832 110.011H517V122.632C517 123.062 517.067 123.386 517.2 123.604C517.332 123.823 517.504 123.968 517.715 124.038C517.926 124.108 518.153 124.144 518.395 124.144C518.575 124.144 518.762 124.128 518.957 124.097C519.161 124.058 519.313 124.026 519.414 124.003L519.426 125.772C519.254 125.827 519.028 125.878 518.746 125.925C518.473 125.979 518.141 126.007 517.75 126.007C517.219 126.007 516.731 125.901 516.286 125.69C515.84 125.479 515.485 125.128 515.219 124.636C514.961 124.136 514.832 123.464 514.832 122.62V110.011ZM521.102 119.573V119.304C521.102 118.39 521.235 117.542 521.5 116.761C521.766 115.972 522.149 115.288 522.649 114.71C523.149 114.124 523.754 113.671 524.465 113.351C525.176 113.022 525.973 112.858 526.856 112.858C527.746 112.858 528.547 113.022 529.258 113.351C529.977 113.671 530.586 114.124 531.086 114.71C531.594 115.288 531.981 115.972 532.246 116.761C532.512 117.542 532.645 118.39 532.645 119.304V119.573C532.645 120.487 532.512 121.335 532.246 122.116C531.981 122.897 531.594 123.581 531.086 124.167C530.586 124.745 529.981 125.198 529.27 125.526C528.567 125.847 527.77 126.007 526.879 126.007C525.989 126.007 525.188 125.847 524.477 125.526C523.766 125.198 523.157 124.745 522.649 124.167C522.149 123.581 521.766 122.897 521.5 122.116C521.235 121.335 521.102 120.487 521.102 119.573ZM523.27 119.304V119.573C523.27 120.206 523.344 120.804 523.493 121.366C523.641 121.921 523.864 122.413 524.161 122.843C524.465 123.272 524.844 123.612 525.297 123.862C525.75 124.104 526.278 124.226 526.879 124.226C527.473 124.226 527.993 124.104 528.438 123.862C528.891 123.612 529.266 123.272 529.563 122.843C529.86 122.413 530.082 121.921 530.231 121.366C530.387 120.804 530.465 120.206 530.465 119.573V119.304C530.465 118.679 530.387 118.089 530.231 117.534C530.082 116.972 529.856 116.476 529.551 116.046C529.254 115.608 528.879 115.265 528.426 115.015C527.981 114.765 527.457 114.64 526.856 114.64C526.262 114.64 525.739 114.765 525.286 115.015C524.84 115.265 524.465 115.608 524.161 116.046C523.864 116.476 523.641 116.972 523.493 117.534C523.344 118.089 523.27 118.679 523.27 119.304ZM525.567 111.218L527.84 107.772H530.453L527.313 111.218H525.567ZM537.532 115.085V125.772H535.364V113.093H537.473L537.532 115.085ZM541.493 113.022L541.481 115.038C541.301 114.999 541.129 114.976 540.965 114.968C540.809 114.952 540.629 114.944 540.426 114.944C539.926 114.944 539.485 115.022 539.102 115.179C538.719 115.335 538.395 115.554 538.129 115.835C537.864 116.116 537.653 116.452 537.496 116.843C537.348 117.226 537.25 117.647 537.203 118.108L536.594 118.46C536.594 117.694 536.668 116.976 536.817 116.304C536.973 115.632 537.211 115.038 537.532 114.522C537.852 113.999 538.258 113.593 538.75 113.304C539.25 113.007 539.844 112.858 540.532 112.858C540.688 112.858 540.868 112.878 541.071 112.917C541.274 112.948 541.414 112.983 541.493 113.022ZM545.852 113.093V125.772H543.672V113.093H545.852ZM543.508 109.729C543.508 109.378 543.614 109.081 543.825 108.839C544.043 108.597 544.364 108.476 544.786 108.476C545.2 108.476 545.516 108.597 545.735 108.839C545.961 109.081 546.075 109.378 546.075 109.729C546.075 110.065 545.961 110.354 545.735 110.597C545.516 110.831 545.2 110.948 544.786 110.948C544.364 110.948 544.043 110.831 543.825 110.597C543.614 110.354 543.508 110.065 543.508 109.729ZM556.809 123.604V117.077C556.809 116.577 556.707 116.144 556.504 115.776C556.309 115.401 556.012 115.112 555.614 114.909C555.215 114.706 554.723 114.604 554.137 114.604C553.59 114.604 553.11 114.698 552.696 114.886C552.289 115.073 551.969 115.319 551.735 115.624C551.508 115.929 551.395 116.257 551.395 116.608H549.227C549.227 116.155 549.344 115.706 549.578 115.261C549.813 114.815 550.149 114.413 550.586 114.054C551.032 113.687 551.563 113.397 552.18 113.187C552.805 112.968 553.5 112.858 554.266 112.858C555.188 112.858 556 113.015 556.703 113.327C557.414 113.64 557.969 114.112 558.368 114.745C558.774 115.37 558.977 116.155 558.977 117.101V123.007C558.977 123.429 559.012 123.878 559.082 124.354C559.161 124.831 559.274 125.241 559.422 125.585V125.772H557.161C557.051 125.522 556.965 125.19 556.903 124.776C556.84 124.354 556.809 123.964 556.809 123.604ZM557.184 118.085L557.207 119.608H555.016C554.399 119.608 553.848 119.659 553.364 119.761C552.879 119.854 552.473 119.999 552.145 120.194C551.817 120.39 551.567 120.636 551.395 120.933C551.223 121.222 551.137 121.562 551.137 121.952C551.137 122.351 551.227 122.714 551.407 123.042C551.586 123.37 551.856 123.632 552.215 123.827C552.582 124.015 553.032 124.108 553.563 124.108C554.227 124.108 554.813 123.968 555.321 123.687C555.828 123.405 556.231 123.062 556.528 122.655C556.832 122.249 556.996 121.854 557.02 121.472L557.946 122.515C557.891 122.843 557.743 123.206 557.5 123.604C557.258 124.003 556.934 124.386 556.528 124.753C556.129 125.112 555.653 125.413 555.098 125.655C554.551 125.89 553.934 126.007 553.246 126.007C552.387 126.007 551.633 125.839 550.985 125.503C550.344 125.167 549.844 124.718 549.485 124.155C549.133 123.585 548.957 122.948 548.957 122.245C548.957 121.565 549.09 120.968 549.356 120.452C549.621 119.929 550.004 119.495 550.504 119.151C551.004 118.8 551.606 118.534 552.309 118.354C553.012 118.175 553.797 118.085 554.664 118.085H557.184ZM573.602 126.007C572.719 126.007 571.918 125.858 571.2 125.562C570.489 125.257 569.875 124.831 569.36 124.284C568.852 123.737 568.461 123.089 568.188 122.339C567.914 121.589 567.778 120.769 567.778 119.878V119.386C567.778 118.354 567.93 117.437 568.235 116.632C568.539 115.819 568.953 115.132 569.477 114.569C570 114.007 570.594 113.581 571.258 113.292C571.922 113.003 572.61 112.858 573.321 112.858C574.227 112.858 575.008 113.015 575.664 113.327C576.328 113.64 576.871 114.077 577.293 114.64C577.715 115.194 578.028 115.851 578.231 116.608C578.434 117.358 578.536 118.179 578.536 119.069V120.042H569.067V118.272H576.368V118.108C576.336 117.546 576.219 116.999 576.016 116.468C575.821 115.937 575.508 115.499 575.078 115.155C574.649 114.812 574.063 114.64 573.321 114.64C572.828 114.64 572.375 114.745 571.961 114.956C571.547 115.159 571.192 115.464 570.895 115.87C570.598 116.276 570.368 116.772 570.203 117.358C570.039 117.944 569.957 118.62 569.957 119.386V119.878C569.957 120.479 570.039 121.046 570.203 121.577C570.375 122.101 570.621 122.562 570.942 122.96C571.27 123.358 571.664 123.671 572.125 123.897C572.594 124.124 573.125 124.237 573.719 124.237C574.485 124.237 575.133 124.081 575.664 123.769C576.196 123.456 576.661 123.038 577.059 122.515L578.371 123.558C578.098 123.972 577.75 124.366 577.328 124.741C576.907 125.116 576.387 125.421 575.77 125.655C575.161 125.89 574.438 126.007 573.602 126.007ZM594.403 122.409C594.403 122.097 594.332 121.808 594.192 121.542C594.059 121.269 593.782 121.022 593.36 120.804C592.946 120.577 592.321 120.382 591.485 120.218C590.782 120.069 590.145 119.894 589.575 119.69C589.012 119.487 588.532 119.241 588.133 118.952C587.743 118.663 587.442 118.323 587.231 117.933C587.02 117.542 586.914 117.085 586.914 116.562C586.914 116.062 587.024 115.589 587.243 115.144C587.469 114.698 587.786 114.304 588.192 113.96C588.606 113.616 589.102 113.347 589.68 113.151C590.258 112.956 590.903 112.858 591.614 112.858C592.629 112.858 593.496 113.038 594.215 113.397C594.934 113.757 595.485 114.237 595.868 114.839C596.25 115.433 596.442 116.093 596.442 116.819H594.274C594.274 116.468 594.168 116.128 593.957 115.8C593.754 115.464 593.453 115.187 593.055 114.968C592.664 114.749 592.184 114.64 591.614 114.64C591.012 114.64 590.524 114.733 590.149 114.921C589.782 115.101 589.512 115.331 589.34 115.612C589.176 115.894 589.094 116.19 589.094 116.503C589.094 116.737 589.133 116.948 589.211 117.136C589.297 117.315 589.446 117.483 589.657 117.64C589.868 117.788 590.164 117.929 590.547 118.062C590.93 118.194 591.418 118.327 592.012 118.46C593.051 118.694 593.907 118.976 594.578 119.304C595.25 119.632 595.75 120.034 596.078 120.511C596.407 120.987 596.571 121.565 596.571 122.245C596.571 122.8 596.453 123.308 596.219 123.769C595.993 124.229 595.661 124.628 595.223 124.964C594.793 125.292 594.278 125.55 593.676 125.737C593.082 125.917 592.414 126.007 591.672 126.007C590.555 126.007 589.61 125.808 588.836 125.409C588.063 125.011 587.477 124.495 587.078 123.862C586.68 123.229 586.481 122.562 586.481 121.858H588.661C588.692 122.452 588.864 122.925 589.176 123.276C589.489 123.62 589.871 123.866 590.325 124.015C590.778 124.155 591.227 124.226 591.672 124.226C592.266 124.226 592.762 124.147 593.161 123.991C593.567 123.835 593.875 123.62 594.086 123.347C594.297 123.073 594.403 122.761 594.403 122.409ZM604.68 126.007C603.797 126.007 602.996 125.858 602.278 125.562C601.567 125.257 600.953 124.831 600.438 124.284C599.93 123.737 599.539 123.089 599.266 122.339C598.993 121.589 598.856 120.769 598.856 119.878V119.386C598.856 118.354 599.008 117.437 599.313 116.632C599.618 115.819 600.032 115.132 600.555 114.569C601.078 114.007 601.672 113.581 602.336 113.292C603 113.003 603.688 112.858 604.399 112.858C605.305 112.858 606.086 113.015 606.743 113.327C607.407 113.64 607.95 114.077 608.371 114.64C608.793 115.194 609.106 115.851 609.309 116.608C609.512 117.358 609.614 118.179 609.614 119.069V120.042H600.145V118.272H607.446V118.108C607.414 117.546 607.297 116.999 607.094 116.468C606.899 115.937 606.586 115.499 606.157 115.155C605.727 114.812 605.141 114.64 604.399 114.64C603.907 114.64 603.453 114.745 603.039 114.956C602.625 115.159 602.27 115.464 601.973 115.87C601.676 116.276 601.446 116.772 601.282 117.358C601.118 117.944 601.036 118.62 601.036 119.386V119.878C601.036 120.479 601.118 121.046 601.282 121.577C601.453 122.101 601.7 122.562 602.02 122.96C602.348 123.358 602.743 123.671 603.203 123.897C603.672 124.124 604.203 124.237 604.797 124.237C605.563 124.237 606.211 124.081 606.743 123.769C607.274 123.456 607.739 123.038 608.137 122.515L609.45 123.558C609.176 123.972 608.828 124.366 608.407 124.741C607.985 125.116 607.465 125.421 606.848 125.655C606.239 125.89 605.516 126.007 604.68 126.007ZM620.36 113.093H622.328V125.503C622.328 126.62 622.102 127.573 621.649 128.362C621.196 129.151 620.563 129.749 619.75 130.155C618.946 130.569 618.016 130.776 616.961 130.776C616.524 130.776 616.008 130.706 615.414 130.565C614.828 130.433 614.25 130.202 613.68 129.874C613.118 129.554 612.645 129.12 612.262 128.573L613.399 127.284C613.93 127.925 614.485 128.37 615.063 128.62C615.649 128.87 616.227 128.995 616.797 128.995C617.485 128.995 618.078 128.866 618.578 128.608C619.078 128.351 619.465 127.968 619.739 127.46C620.02 126.96 620.161 126.343 620.161 125.608V115.882L620.36 113.093ZM611.629 119.573V119.327C611.629 118.358 611.743 117.479 611.969 116.69C612.203 115.894 612.536 115.21 612.965 114.64C613.403 114.069 613.93 113.632 614.547 113.327C615.164 113.015 615.86 112.858 616.633 112.858C617.43 112.858 618.125 112.999 618.719 113.28C619.321 113.554 619.828 113.956 620.243 114.487C620.664 115.011 620.996 115.644 621.239 116.386C621.481 117.128 621.649 117.968 621.743 118.905V119.983C621.657 120.913 621.489 121.749 621.239 122.491C620.996 123.233 620.664 123.866 620.243 124.39C619.828 124.913 619.321 125.315 618.719 125.597C618.118 125.87 617.414 126.007 616.61 126.007C615.852 126.007 615.164 125.847 614.547 125.526C613.938 125.206 613.414 124.757 612.977 124.179C612.539 123.601 612.203 122.921 611.969 122.14C611.743 121.351 611.629 120.495 611.629 119.573ZM613.797 119.327V119.573C613.797 120.206 613.86 120.8 613.985 121.354C614.118 121.909 614.317 122.397 614.582 122.819C614.856 123.241 615.203 123.573 615.625 123.815C616.047 124.05 616.551 124.167 617.137 124.167C617.856 124.167 618.45 124.015 618.918 123.71C619.387 123.405 619.758 123.003 620.032 122.503C620.313 122.003 620.532 121.46 620.688 120.874V118.05C620.602 117.62 620.469 117.206 620.289 116.808C620.118 116.401 619.891 116.042 619.61 115.729C619.336 115.409 618.996 115.155 618.59 114.968C618.184 114.78 617.707 114.687 617.161 114.687C616.567 114.687 616.055 114.812 615.625 115.062C615.203 115.304 614.856 115.64 614.582 116.069C614.317 116.491 614.118 116.983 613.985 117.546C613.86 118.101 613.797 118.694 613.797 119.327ZM633.379 122.843V113.093H635.559V125.772H633.485L633.379 122.843ZM633.789 120.171L634.692 120.147C634.692 120.991 634.602 121.772 634.422 122.491C634.25 123.202 633.969 123.819 633.578 124.343C633.188 124.866 632.676 125.276 632.043 125.573C631.411 125.862 630.641 126.007 629.735 126.007C629.118 126.007 628.551 125.917 628.036 125.737C627.528 125.558 627.09 125.28 626.723 124.905C626.356 124.53 626.071 124.042 625.868 123.44C625.672 122.839 625.575 122.116 625.575 121.272V113.093H627.743V121.296C627.743 121.866 627.805 122.339 627.93 122.714C628.063 123.081 628.239 123.374 628.457 123.593C628.684 123.804 628.934 123.952 629.207 124.038C629.489 124.124 629.778 124.167 630.075 124.167C630.996 124.167 631.727 123.991 632.266 123.64C632.805 123.28 633.192 122.8 633.426 122.198C633.668 121.589 633.789 120.913 633.789 120.171ZM641.032 115.085V125.772H638.864V113.093H640.973L641.032 115.085ZM644.993 113.022L644.981 115.038C644.801 114.999 644.629 114.976 644.465 114.968C644.309 114.952 644.129 114.944 643.926 114.944C643.426 114.944 642.985 115.022 642.602 115.179C642.219 115.335 641.895 115.554 641.629 115.835C641.364 116.116 641.153 116.452 640.996 116.843C640.848 117.226 640.75 117.647 640.703 118.108L640.094 118.46C640.094 117.694 640.168 116.976 640.317 116.304C640.473 115.632 640.711 115.038 641.032 114.522C641.352 113.999 641.758 113.593 642.25 113.304C642.75 113.007 643.344 112.858 644.032 112.858C644.188 112.858 644.368 112.878 644.571 112.917C644.774 112.948 644.914 112.983 644.993 113.022ZM654.004 123.604V117.077C654.004 116.577 653.903 116.144 653.7 115.776C653.504 115.401 653.207 115.112 652.809 114.909C652.411 114.706 651.918 114.604 651.332 114.604C650.786 114.604 650.305 114.698 649.891 114.886C649.485 115.073 649.164 115.319 648.93 115.624C648.703 115.929 648.59 116.257 648.59 116.608H646.422C646.422 116.155 646.539 115.706 646.774 115.261C647.008 114.815 647.344 114.413 647.782 114.054C648.227 113.687 648.758 113.397 649.375 113.187C650 112.968 650.696 112.858 651.461 112.858C652.383 112.858 653.196 113.015 653.899 113.327C654.61 113.64 655.164 114.112 655.563 114.745C655.969 115.37 656.172 116.155 656.172 117.101V123.007C656.172 123.429 656.207 123.878 656.278 124.354C656.356 124.831 656.469 125.241 656.618 125.585V125.772H654.356C654.246 125.522 654.161 125.19 654.098 124.776C654.036 124.354 654.004 123.964 654.004 123.604ZM654.379 118.085L654.403 119.608H652.211C651.594 119.608 651.043 119.659 650.559 119.761C650.075 119.854 649.668 119.999 649.34 120.194C649.012 120.39 648.762 120.636 648.59 120.933C648.418 121.222 648.332 121.562 648.332 121.952C648.332 122.351 648.422 122.714 648.602 123.042C648.782 123.37 649.051 123.632 649.411 123.827C649.778 124.015 650.227 124.108 650.758 124.108C651.422 124.108 652.008 123.968 652.516 123.687C653.024 123.405 653.426 123.062 653.723 122.655C654.028 122.249 654.192 121.854 654.215 121.472L655.141 122.515C655.086 122.843 654.938 123.206 654.696 123.604C654.453 124.003 654.129 124.386 653.723 124.753C653.325 125.112 652.848 125.413 652.293 125.655C651.746 125.89 651.129 126.007 650.442 126.007C649.582 126.007 648.828 125.839 648.18 125.503C647.539 125.167 647.039 124.718 646.68 124.155C646.328 123.585 646.153 122.948 646.153 122.245C646.153 121.565 646.286 120.968 646.551 120.452C646.817 119.929 647.2 119.495 647.7 119.151C648.2 118.8 648.801 118.534 649.504 118.354C650.207 118.175 650.993 118.085 651.86 118.085H654.379Z" fill="white"/>
</svg>
